<?xml version="1.0" encoding="iso-8859-1"?>
<!-- Generator: Adobe Illustrator 19.1.0, SVG Export Plug-In . SVG Version: 6.00 Build 0)  -->
<svg xmlns="http://www.w3.org/2000/svg" xmlns:xlink="http://www.w3.org/1999/xlink" version="1.1" id="Capa_1" x="0px" y="0px" viewBox="0 0 489.6 489.6" style="enable-background:new 0 0 489.6 489.6;" xml:space="preserve" width="512px" height="512px">
<g>
	<g>
		<path d="M244.9,210.978h85.5c-0.5-35.6,1-54.5-22.1-62.9c-20.9-8-33.5-16.2-33.5-16.2l-16.1,51l-2.2,6.9l-7.2-20.5    c16.6-23.2-1.3-24.3-4.4-24.3l0,0c0,0,0,0-0.1,0l0,0l0,0c0,0,0,0-0.1,0l0,0c-3.1,0-21,1.1-4.4,24.3l-7.2,20.5l-2.2-6.9l-16.1-51    c0,0-12.5,8.2-33.5,16.2c-23.1,8.4-21.6,27.4-22.1,62.9h81.3L244.9,210.978L244.9,210.978z" fill="#7b90b0"/>
		<path d="M208.5,99.478c1.9,12,11.1,27.2,26.3,32.6c6.2,2.2,13.1,2.2,19.3,0c15-5.4,24.5-20.6,26.4-32.5c2-0.2,4.7-3,7.5-13.1    c3.9-13.8-0.2-15.8-3.8-15.5c0.7-1.9,1.2-3.8,1.5-5.7c5.9-35.7-11.6-36.9-11.6-36.9s-2.9-5.6-10.6-9.8c-5.1-3-12.3-5.4-21.7-4.6    c-3.1,0.1-5.9,0.7-8.7,1.7l0,0c-3.5,1.2-6.7,2.9-9.5,4.9c-3.5,2.2-6.9,5-9.8,8.1c-4.7,4.8-8.8,10.9-10.6,18.6    c-1.5,5.7-1.2,11.7,0.1,18.2l0,0c0.3,1.9,0.8,3.8,1.5,5.7c-3.5-0.3-7.7,1.7-3.8,15.5C203.8,96.478,206.5,99.378,208.5,99.478z" fill="#7b90b0"/>
		<path d="M149.1,412.878c-20.9-8-33.5-16.2-33.5-16.2l-16.1,51l-2.2,6.9l-7.2-20.5c16.6-23.2-1.3-24.3-4.4-24.3l0,0c0,0,0,0-0.1,0    l0,0l0,0c0,0,0,0-0.1,0l0,0c-3.1,0-21,1.1-4.4,24.3l-7.2,20.5l-2.2-6.9l-16.1-51c0,0-12.5,8.2-33.5,16.2    c-23.1,8.4-21.6,27.4-22.1,62.9h81.3h4.4h85.5C170.7,440.278,172.2,421.278,149.1,412.878z" fill="#7b90b0"/>
		<path d="M49.4,364.378c1.9,12,11.1,27.2,26.3,32.6c6.2,2.2,13.1,2.2,19.3,0c15-5.4,24.5-20.6,26.4-32.5c2-0.2,4.7-3,7.5-13.1    c3.9-13.8-0.2-15.8-3.8-15.5c0.7-1.9,1.2-3.8,1.5-5.7c5.9-35.7-11.6-36.9-11.6-36.9s-2.9-5.6-10.6-9.8c-5.1-3-12.3-5.4-21.7-4.6    c-3.1,0.1-5.9,0.7-8.7,1.7l0,0c-3.5,1.2-6.7,2.9-9.5,4.9c-3.5,2.2-6.9,5-9.8,8.1c-4.7,4.8-8.8,10.9-10.6,18.6    c-1.5,5.7-1.2,11.7,0.1,18.2l0,0c0.3,1.9,0.8,3.8,1.5,5.7c-3.5-0.3-7.7,1.7-3.8,15.5C44.7,361.378,47.4,364.178,49.4,364.378z" fill="#7b90b0"/>
		<path d="M467.5,412.878c-20.9-8-33.5-16.2-33.5-16.2l-16.1,51l-2.2,6.9l-7.2-20.5c16.6-23.2-1.3-24.3-4.4-24.3l0,0c0,0,0,0-0.1,0    l0,0l0,0c0,0,0,0-0.1,0l0,0c-3.1,0-21,1.1-4.4,24.3l-7.2,20.5l-2.2-6.9l-16.1-51c0,0-12.5,8.2-33.5,16.2    c-23.1,8.4-21.6,27.4-22.1,62.9h81.3h4.4h85.5C489.1,440.278,490.5,421.278,467.5,412.878z" fill="#7b90b0"/>
		<path d="M367.7,364.378c1.9,12,11.1,27.2,26.3,32.6c6.2,2.2,13.1,2.2,19.3,0c15-5.4,24.5-20.6,26.4-32.5c2-0.2,4.7-3,7.5-13.1    c3.9-13.8-0.2-15.8-3.8-15.5c0.7-1.9,1.2-3.8,1.5-5.7c5.9-35.7-11.6-36.9-11.6-36.9s-2.9-5.6-10.6-9.8c-5.1-3-12.3-5.4-21.7-4.6    c-3.1,0.1-5.9,0.7-8.7,1.7l0,0c-3.5,1.2-6.7,2.9-9.5,4.9c-3.5,2.2-6.9,5-9.8,8.1c-4.7,4.8-8.8,10.9-10.6,18.6    c-1.5,5.7-1.2,11.7,0.1,18.2l0,0c0.3,1.9,0.8,3.8,1.5,5.7c-3.5-0.3-7.7,1.7-3.8,15.5C363,361.378,365.7,364.178,367.7,364.378z" fill="#7b90b0"/>
		<path d="M313.8,354.078l-55.4-35.9v-66c0-7.5-6.1-13.5-13.5-13.5c-7.5,0-13.5,6.1-13.5,13.5v66l-55.4,35.9c-6.2,4.1-8,12.4-4,18.7    c3.9,6,12.6,7.9,18.7,4l54.2-35.2l54.2,35.2c2.2,1.4,4.7,2.2,7.3,2.2c4.6,0,8.8-2.3,11.3-6.2    C321.8,366.478,320.1,358.178,313.8,354.078z" fill="#7b90b0"/>
	</g>
</g>
<g>
</g>
<g>
</g>
<g>
</g>
<g>
</g>
<g>
</g>
<g>
</g>
<g>
</g>
<g>
</g>
<g>
</g>
<g>
</g>
<g>
</g>
<g>
</g>
<g>
</g>
<g>
</g>
<g>
</g>
</svg>
